<svg width="163" height="46" viewBox="0 0 163 46" fill="none" xmlns="http://www.w3.org/2000/svg">
<rect x="10" y="30.0571" width="5.94286" height="5.94286" rx="1" fill="#D9D9D9"/>
<rect x="10" y="21.8857" width="5.94286" height="5.94286" rx="1" fill="#D9D9D9"/>
<rect x="10" y="14.4572" width="5.94286" height="5.94286" rx="1" fill="#D9D9D9"/>
<rect x="21.1436" y="10" width="5.94286" height="5.94286" rx="1" fill="#5D70B8"/>
<rect x="18.1709" y="21.8857" width="5.94286" height="5.94286" rx="1" fill="#D9D9D9"/>
<path d="M46.0619 20.192C46.0619 20.7573 45.9286 21.2907 45.6619 21.792C45.3953 22.2933 44.9686 22.704 44.3819 23.024C43.7953 23.3333 43.0433 23.488 42.1259 23.488H40.1099V28H38.2859V16.88H42.1259C42.9793 16.88 43.6993 17.0293 44.2859 17.328C44.8833 17.616 45.3259 18.0107 45.6139 18.512C45.9126 19.0133 46.0619 19.5733 46.0619 20.192ZM42.1259 22C42.8193 22 43.3366 21.8453 43.6779 21.536C44.0193 21.216 44.1899 20.768 44.1899 20.192C44.1899 18.976 43.5019 18.368 42.1259 18.368H40.1099V22H42.1259ZM49.6256 20.464C49.8922 20.016 50.2442 19.6693 50.6816 19.424C51.1296 19.168 51.6576 19.04 52.2656 19.04V20.928H51.8016C51.0869 20.928 50.5429 21.1093 50.1696 21.472C49.8069 21.8347 49.6256 22.464 49.6256 23.36V28H47.8016V19.184H49.6256V20.464ZM57.7662 28.144C56.9342 28.144 56.1822 27.9573 55.5102 27.584C54.8382 27.2 54.3102 26.6667 53.9262 25.984C53.5422 25.2907 53.3502 24.4907 53.3502 23.584C53.3502 22.688 53.5475 21.8933 53.9422 21.2C54.3369 20.5067 54.8755 19.9733 55.5582 19.6C56.2409 19.2267 57.0035 19.04 57.8462 19.04C58.6889 19.04 59.4515 19.2267 60.1342 19.6C60.8169 19.9733 61.3555 20.5067 61.7502 21.2C62.1449 21.8933 62.3422 22.688 62.3422 23.584C62.3422 24.48 62.1395 25.2747 61.7342 25.968C61.3289 26.6613 60.7742 27.2 60.0702 27.584C59.3769 27.9573 58.6089 28.144 57.7662 28.144ZM57.7662 26.56C58.2355 26.56 58.6729 26.448 59.0782 26.224C59.4942 26 59.8302 25.664 60.0862 25.216C60.3422 24.768 60.4702 24.224 60.4702 23.584C60.4702 22.944 60.3475 22.4053 60.1022 21.968C59.8569 21.52 59.5315 21.184 59.1262 20.96C58.7209 20.736 58.2835 20.624 57.8142 20.624C57.3449 20.624 56.9075 20.736 56.5022 20.96C56.1075 21.184 55.7929 21.52 55.5582 21.968C55.3235 22.4053 55.2062 22.944 55.2062 23.584C55.2062 24.5333 55.4462 25.2693 55.9262 25.792C56.4169 26.304 57.0302 26.56 57.7662 26.56ZM74.8173 19.04C75.5106 19.04 76.1293 19.184 76.6733 19.472C77.228 19.76 77.66 20.1867 77.9693 20.752C78.2893 21.3173 78.4493 22 78.4493 22.8V28H76.6413V23.072C76.6413 22.2827 76.444 21.68 76.0493 21.264C75.6546 20.8373 75.116 20.624 74.4333 20.624C73.7506 20.624 73.2066 20.8373 72.8013 21.264C72.4066 21.68 72.2093 22.2827 72.2093 23.072V28H70.4013V23.072C70.4013 22.2827 70.204 21.68 69.8093 21.264C69.4146 20.8373 68.876 20.624 68.1933 20.624C67.5106 20.624 66.9666 20.8373 66.5613 21.264C66.1666 21.68 65.9693 22.2827 65.9693 23.072V28H64.1453V19.184H65.9693V20.192C66.268 19.8293 66.6466 19.5467 67.1053 19.344C67.564 19.1413 68.0546 19.04 68.5773 19.04C69.2813 19.04 69.9106 19.1893 70.4653 19.488C71.02 19.7867 71.4466 20.2187 71.7453 20.784C72.012 20.2507 72.428 19.8293 72.9933 19.52C73.5586 19.2 74.1666 19.04 74.8173 19.04ZM84.5943 28.144C83.7623 28.144 83.0103 27.9573 82.3383 27.584C81.6663 27.2 81.1383 26.6667 80.7543 25.984C80.3703 25.2907 80.1783 24.4907 80.1783 23.584C80.1783 22.688 80.3756 21.8933 80.7703 21.2C81.165 20.5067 81.7036 19.9733 82.3863 19.6C83.069 19.2267 83.8316 19.04 84.6743 19.04C85.517 19.04 86.2796 19.2267 86.9623 19.6C87.645 19.9733 88.1836 20.5067 88.5783 21.2C88.973 21.8933 89.1703 22.688 89.1703 23.584C89.1703 24.48 88.9676 25.2747 88.5623 25.968C88.157 26.6613 87.6023 27.2 86.8983 27.584C86.205 27.9573 85.437 28.144 84.5943 28.144ZM84.5943 26.56C85.0636 26.56 85.501 26.448 85.9063 26.224C86.3223 26 86.6583 25.664 86.9143 25.216C87.1703 24.768 87.2983 24.224 87.2983 23.584C87.2983 22.944 87.1756 22.4053 86.9303 21.968C86.685 21.52 86.3596 21.184 85.9543 20.96C85.549 20.736 85.1116 20.624 84.6423 20.624C84.173 20.624 83.7356 20.736 83.3303 20.96C82.9356 21.184 82.621 21.52 82.3863 21.968C82.1516 22.4053 82.0343 22.944 82.0343 23.584C82.0343 24.5333 82.2743 25.2693 82.7543 25.792C83.245 26.304 83.8583 26.56 84.5943 26.56ZM139.938 28.144C139.106 28.144 138.354 27.9573 137.682 27.584C137.01 27.2 136.482 26.6667 136.098 25.984C135.714 25.2907 135.522 24.4907 135.522 23.584C135.522 22.688 135.719 21.8933 136.114 21.2C136.509 20.5067 137.047 19.9733 137.73 19.6C138.413 19.2267 139.175 19.04 140.018 19.04C140.861 19.04 141.623 19.2267 142.306 19.6C142.989 19.9733 143.527 20.5067 143.922 21.2C144.317 21.8933 144.514 22.688 144.514 23.584C144.514 24.48 144.311 25.2747 143.906 25.968C143.501 26.6613 142.946 27.2 142.242 27.584C141.549 27.9573 140.781 28.144 139.938 28.144ZM139.938 26.56C140.407 26.56 140.845 26.448 141.25 26.224C141.666 26 142.002 25.664 142.258 25.216C142.514 24.768 142.642 24.224 142.642 23.584C142.642 22.944 142.519 22.4053 142.274 21.968C142.029 21.52 141.703 21.184 141.298 20.96C140.893 20.736 140.455 20.624 139.986 20.624C139.517 20.624 139.079 20.736 138.674 20.96C138.279 21.184 137.965 21.52 137.73 21.968C137.495 22.4053 137.378 22.944 137.378 23.584C137.378 24.5333 137.618 25.2693 138.098 25.792C138.589 26.304 139.202 26.56 139.938 26.56ZM148.141 20.464C148.408 20.016 148.76 19.6693 149.197 19.424C149.645 19.168 150.173 19.04 150.781 19.04V20.928H150.317C149.603 20.928 149.059 21.1093 148.685 21.472C148.323 21.8347 148.141 22.464 148.141 23.36V28H146.317V19.184H148.141V20.464Z" fill="#E6E9FF"/>
<path d="M90.3014 22.368C90.3014 21.2587 90.5414 20.272 91.0214 19.408C91.5014 18.5333 92.1681 17.856 93.0214 17.376C93.8854 16.8853 94.8614 16.64 95.9494 16.64C97.2828 16.64 98.4241 16.992 99.3734 17.696C100.323 18.4 100.957 19.36 101.277 20.576H98.2694C98.0454 20.1067 97.7254 19.7493 97.3094 19.504C96.9041 19.2587 96.4401 19.136 95.9174 19.136C95.0748 19.136 94.3921 19.4293 93.8694 20.016C93.3468 20.6027 93.0854 21.3867 93.0854 22.368C93.0854 23.3493 93.3468 24.1333 93.8694 24.72C94.3921 25.3067 95.0748 25.6 95.9174 25.6C96.4401 25.6 96.9041 25.4773 97.3094 25.232C97.7254 24.9867 98.0454 24.6293 98.2694 24.16H101.277C100.957 25.376 100.323 26.336 99.3734 27.04C98.4241 27.7333 97.2828 28.08 95.9494 28.08C94.8614 28.08 93.8854 27.84 93.0214 27.36C92.1681 26.8693 91.5014 26.192 91.0214 25.328C90.5414 24.464 90.3014 23.4773 90.3014 22.368ZM112.681 16.768V28H109.945V23.376H105.689V28H102.953V16.768H105.689V21.168H109.945V16.768H112.681ZM121.648 26.016H117.456L116.784 28H113.92L117.984 16.768H121.152L125.216 28H122.32L121.648 26.016ZM120.944 23.904L119.552 19.792L118.176 23.904H120.944ZM134.533 16.768V18.96H131.557V28H128.821V18.96H125.845V16.768H134.533Z" fill="#5D70B8"/>
</svg>
