<svg width="143" height="26" viewBox="0 0 143 26" fill="none" xmlns="http://www.w3.org/2000/svg">
<rect y="20.0571" width="5.94286" height="5.94286" rx="1" fill="#D9D9D9"/>
<rect y="11.8857" width="5.94286" height="5.94286" rx="1" fill="#D9D9D9"/>
<rect y="4.45715" width="5.94286" height="5.94286" rx="1" fill="#D9D9D9"/>
<rect x="11.1436" width="5.94286" height="5.94286" rx="1" fill="#5D70B8"/>
<rect x="8.1709" y="11.8857" width="5.94286" height="5.94286" rx="1" fill="#D9D9D9"/>
<path d="M36.0619 10.192C36.0619 10.7573 35.9286 11.2907 35.6619 11.792C35.3953 12.2933 34.9686 12.704 34.3819 13.024C33.7953 13.3333 33.0433 13.488 32.1259 13.488H30.1099V18H28.2859V6.88H32.1259C32.9793 6.88 33.6993 7.02933 34.2859 7.328C34.8833 7.616 35.3259 8.01067 35.6139 8.512C35.9126 9.01333 36.0619 9.57333 36.0619 10.192ZM32.1259 12C32.8193 12 33.3366 11.8453 33.6779 11.536C34.0193 11.216 34.1899 10.768 34.1899 10.192C34.1899 8.976 33.5019 8.368 32.1259 8.368H30.1099V12H32.1259ZM39.6256 10.464C39.8922 10.016 40.2442 9.66933 40.6816 9.424C41.1296 9.168 41.6576 9.04 42.2656 9.04V10.928H41.8016C41.0869 10.928 40.5429 11.1093 40.1696 11.472C39.8069 11.8347 39.6256 12.464 39.6256 13.36V18H37.8016V9.184H39.6256V10.464ZM47.7662 18.144C46.9342 18.144 46.1822 17.9573 45.5102 17.584C44.8382 17.2 44.3102 16.6667 43.9262 15.984C43.5422 15.2907 43.3502 14.4907 43.3502 13.584C43.3502 12.688 43.5475 11.8933 43.9422 11.2C44.3369 10.5067 44.8755 9.97333 45.5582 9.6C46.2409 9.22667 47.0035 9.04 47.8462 9.04C48.6889 9.04 49.4515 9.22667 50.1342 9.6C50.8169 9.97333 51.3555 10.5067 51.7502 11.2C52.1449 11.8933 52.3422 12.688 52.3422 13.584C52.3422 14.48 52.1395 15.2747 51.7342 15.968C51.3289 16.6613 50.7742 17.2 50.0702 17.584C49.3769 17.9573 48.6089 18.144 47.7662 18.144ZM47.7662 16.56C48.2355 16.56 48.6729 16.448 49.0782 16.224C49.4942 16 49.8302 15.664 50.0862 15.216C50.3422 14.768 50.4702 14.224 50.4702 13.584C50.4702 12.944 50.3475 12.4053 50.1022 11.968C49.8569 11.52 49.5315 11.184 49.1262 10.96C48.7209 10.736 48.2835 10.624 47.8142 10.624C47.3449 10.624 46.9075 10.736 46.5022 10.96C46.1075 11.184 45.7929 11.52 45.5582 11.968C45.3235 12.4053 45.2062 12.944 45.2062 13.584C45.2062 14.5333 45.4462 15.2693 45.9262 15.792C46.4169 16.304 47.0302 16.56 47.7662 16.56ZM64.8173 9.04C65.5106 9.04 66.1293 9.184 66.6733 9.472C67.228 9.76 67.66 10.1867 67.9693 10.752C68.2893 11.3173 68.4493 12 68.4493 12.8V18H66.6413V13.072C66.6413 12.2827 66.444 11.68 66.0493 11.264C65.6546 10.8373 65.116 10.624 64.4333 10.624C63.7506 10.624 63.2066 10.8373 62.8013 11.264C62.4066 11.68 62.2093 12.2827 62.2093 13.072V18H60.4013V13.072C60.4013 12.2827 60.204 11.68 59.8093 11.264C59.4146 10.8373 58.876 10.624 58.1933 10.624C57.5106 10.624 56.9666 10.8373 56.5613 11.264C56.1666 11.68 55.9693 12.2827 55.9693 13.072V18H54.1453V9.184H55.9693V10.192C56.268 9.82933 56.6466 9.54667 57.1053 9.344C57.564 9.14133 58.0546 9.04 58.5773 9.04C59.2813 9.04 59.9106 9.18933 60.4653 9.488C61.02 9.78667 61.4466 10.2187 61.7453 10.784C62.012 10.2507 62.428 9.82933 62.9933 9.52C63.5586 9.2 64.1666 9.04 64.8173 9.04ZM74.5943 18.144C73.7623 18.144 73.0103 17.9573 72.3383 17.584C71.6663 17.2 71.1383 16.6667 70.7543 15.984C70.3703 15.2907 70.1783 14.4907 70.1783 13.584C70.1783 12.688 70.3756 11.8933 70.7703 11.2C71.165 10.5067 71.7036 9.97333 72.3863 9.6C73.069 9.22667 73.8316 9.04 74.6743 9.04C75.517 9.04 76.2796 9.22667 76.9623 9.6C77.645 9.97333 78.1836 10.5067 78.5783 11.2C78.973 11.8933 79.1703 12.688 79.1703 13.584C79.1703 14.48 78.9676 15.2747 78.5623 15.968C78.157 16.6613 77.6023 17.2 76.8983 17.584C76.205 17.9573 75.437 18.144 74.5943 18.144ZM74.5943 16.56C75.0636 16.56 75.501 16.448 75.9063 16.224C76.3223 16 76.6583 15.664 76.9143 15.216C77.1703 14.768 77.2983 14.224 77.2983 13.584C77.2983 12.944 77.1756 12.4053 76.9303 11.968C76.685 11.52 76.3596 11.184 75.9543 10.96C75.549 10.736 75.1116 10.624 74.6423 10.624C74.173 10.624 73.7356 10.736 73.3303 10.96C72.9356 11.184 72.621 11.52 72.3863 11.968C72.1516 12.4053 72.0343 12.944 72.0343 13.584C72.0343 14.5333 72.2743 15.2693 72.7543 15.792C73.245 16.304 73.8583 16.56 74.5943 16.56ZM129.938 18.144C129.106 18.144 128.354 17.9573 127.682 17.584C127.01 17.2 126.482 16.6667 126.098 15.984C125.714 15.2907 125.522 14.4907 125.522 13.584C125.522 12.688 125.719 11.8933 126.114 11.2C126.509 10.5067 127.047 9.97333 127.73 9.6C128.413 9.22667 129.175 9.04 130.018 9.04C130.861 9.04 131.623 9.22667 132.306 9.6C132.989 9.97333 133.527 10.5067 133.922 11.2C134.317 11.8933 134.514 12.688 134.514 13.584C134.514 14.48 134.311 15.2747 133.906 15.968C133.501 16.6613 132.946 17.2 132.242 17.584C131.549 17.9573 130.781 18.144 129.938 18.144ZM129.938 16.56C130.407 16.56 130.845 16.448 131.25 16.224C131.666 16 132.002 15.664 132.258 15.216C132.514 14.768 132.642 14.224 132.642 13.584C132.642 12.944 132.519 12.4053 132.274 11.968C132.029 11.52 131.703 11.184 131.298 10.96C130.893 10.736 130.455 10.624 129.986 10.624C129.517 10.624 129.079 10.736 128.674 10.96C128.279 11.184 127.965 11.52 127.73 11.968C127.495 12.4053 127.378 12.944 127.378 13.584C127.378 14.5333 127.618 15.2693 128.098 15.792C128.589 16.304 129.202 16.56 129.938 16.56ZM138.141 10.464C138.408 10.016 138.76 9.66933 139.197 9.424C139.645 9.168 140.173 9.04 140.781 9.04V10.928H140.317C139.603 10.928 139.059 11.1093 138.685 11.472C138.323 11.8347 138.141 12.464 138.141 13.36V18H136.317V9.184H138.141V10.464Z" fill="#E6E9FF"/>
<path d="M80.3014 12.368C80.3014 11.2587 80.5414 10.272 81.0214 9.408C81.5014 8.53333 82.1681 7.856 83.0214 7.376C83.8854 6.88533 84.8614 6.64 85.9494 6.64C87.2828 6.64 88.4241 6.992 89.3734 7.696C90.3228 8.4 90.9574 9.36 91.2774 10.576H88.2694C88.0454 10.1067 87.7254 9.74933 87.3094 9.504C86.9041 9.25867 86.4401 9.136 85.9174 9.136C85.0748 9.136 84.3921 9.42933 83.8694 10.016C83.3468 10.6027 83.0854 11.3867 83.0854 12.368C83.0854 13.3493 83.3468 14.1333 83.8694 14.72C84.3921 15.3067 85.0748 15.6 85.9174 15.6C86.4401 15.6 86.9041 15.4773 87.3094 15.232C87.7254 14.9867 88.0454 14.6293 88.2694 14.16H91.2774C90.9574 15.376 90.3228 16.336 89.3734 17.04C88.4241 17.7333 87.2828 18.08 85.9494 18.08C84.8614 18.08 83.8854 17.84 83.0214 17.36C82.1681 16.8693 81.5014 16.192 81.0214 15.328C80.5414 14.464 80.3014 13.4773 80.3014 12.368ZM102.681 6.768V18H99.9449V13.376H95.6889V18H92.9529V6.768H95.6889V11.168H99.9449V6.768H102.681ZM111.648 16.016H107.456L106.784 18H103.92L107.984 6.768H111.152L115.216 18H112.32L111.648 16.016ZM110.944 13.904L109.552 9.792L108.176 13.904H110.944ZM124.533 6.768V8.96H121.557V18H118.821V8.96H115.845V6.768H124.533Z" fill="#5D70B8"/>
</svg>
